<svg width="61" height="60" viewBox="0 0 61 60" fill="none" xmlns="http://www.w3.org/2000/svg">
<rect x="0.36853" y="0.151611" width="59.6576" height="59.6576" rx="29.8288" fill="#0B1E44"/>
<path d="M25.6786 42.4795C25.0941 42.4795 24.5827 42.302 24.1443 41.9472C23.7059 41.5923 23.4136 41.133 23.2675 40.5693L21.8583 34.9641H38.1416L36.7325 40.5693C36.5864 41.133 36.2941 41.5923 35.8557 41.9472C35.4173 42.302 34.9059 42.4795 34.3213 42.4795H25.6786ZM23.424 17.4909C25.282 17.7205 26.8427 18.5397 28.1061 19.9484C29.3687 21.358 30 23.023 30 24.9436C30 23.023 30.6313 21.358 31.8939 19.9484C33.1573 18.5397 34.718 17.7205 36.5759 17.4909C36.8265 17.4491 37.0456 17.5222 37.2335 17.7101C37.4214 17.898 37.4945 18.1172 37.4527 18.3677C37.244 20.0169 36.5655 21.431 35.4173 22.6101C34.2691 23.79 32.8809 24.5261 31.2525 24.8184V27.4487H40.0205C40.3754 27.4487 40.6727 27.5686 40.9123 27.8082C41.1528 28.0487 41.273 28.3464 41.273 28.7013V31.2064C41.273 31.8953 41.028 32.4849 40.5378 32.9751C40.0468 33.4661 39.4568 33.7116 38.7679 33.7116H21.2321C20.5431 33.7116 19.9532 33.4661 19.4622 32.9751C18.972 32.4849 18.7269 31.8953 18.7269 31.2064V28.7013C18.7269 28.3464 18.8472 28.0487 19.0877 27.8082C19.3273 27.5686 19.6246 27.4487 19.9795 27.4487H28.7474V24.8184C27.1191 24.5261 25.7308 23.79 24.5827 22.6101C23.4345 21.431 22.756 20.0169 22.5472 18.3677C22.5055 18.1172 22.5786 17.898 22.7664 17.7101C22.9543 17.5222 23.1735 17.4491 23.424 17.4909Z" fill="white"/>
</svg>
