<svg width="61" height="61" viewBox="0 0 61 61" fill="none" xmlns="http://www.w3.org/2000/svg">
<rect x="0.973877" y="0.494019" width="59.6576" height="59.6576" rx="29.8288" fill="#0B1E44"/>
<path d="M23.1875 21.2744C23.1875 20.918 23.4756 20.625 23.8369 20.625C24.0078 20.625 24.1738 20.6934 24.2959 20.8154L25.0234 21.543C24.8477 21.9824 24.75 22.4658 24.75 22.9688C24.75 23.9404 25.1016 24.8242 25.6875 25.5078C25.4287 25.957 25.4922 26.5381 25.873 26.9238C26.332 27.3828 27.0742 27.3828 27.5283 26.9238L32.6113 21.8457C33.0703 21.3867 33.0703 20.6445 32.6113 20.1904C32.2256 19.8047 31.6445 19.7461 31.1953 20.0049C30.5117 19.4141 29.6279 19.0625 28.6562 19.0625C28.1533 19.0625 27.6699 19.1602 27.2305 19.3311L26.5029 18.6035C25.7949 17.8955 24.833 17.5 23.8369 17.5C21.752 17.5 20.0625 19.1895 20.0625 21.2744V30C19.1982 30 18.5 30.6982 18.5 31.5625C18.5 32.4268 19.1982 33.125 20.0625 33.125H41.9375C42.8018 33.125 43.5 32.4268 43.5 31.5625C43.5 30.6982 42.8018 30 41.9375 30H23.1875V21.2744ZM20.0625 34.6875V35.4688C20.0625 36.8555 20.668 38.1055 21.625 38.9648V40.9375C21.625 41.8018 22.3232 42.5 23.1875 42.5C24.0518 42.5 24.75 41.8018 24.75 40.9375V40.1562H37.25V40.9375C37.25 41.8018 37.9482 42.5 38.8125 42.5C39.6768 42.5 40.375 41.8018 40.375 40.9375V38.9648C41.332 38.1055 41.9375 36.8604 41.9375 35.4688V34.6875H20.0625Z" fill="white"/>
</svg>
