<svg width="61" height="61" viewBox="0 0 61 61" fill="none" xmlns="http://www.w3.org/2000/svg">
<rect x="0.973877" y="0.850098" width="59.6576" height="59.6576" rx="29.8288" fill="#0B1E44"/>
<path d="M17.831 20.8796C18.5817 20.8796 19.1882 21.4861 19.1882 22.2368V33.0939H28.6882V26.3082C28.6882 25.5575 29.2946 24.9511 30.0453 24.9511H39.5453C41.7931 24.9511 43.6167 26.7747 43.6167 29.0225V38.5225C43.6167 39.2732 43.0103 39.8796 42.2596 39.8796C41.5089 39.8796 40.9024 39.2732 40.9024 38.5225V37.1654H31.4024H30.0453H19.1882V38.5225C19.1882 39.2732 18.5817 39.8796 17.831 39.8796C17.0804 39.8796 16.4739 39.2732 16.4739 38.5225V22.2368C16.4739 21.4861 17.0804 20.8796 17.831 20.8796ZM23.9382 24.9511C24.838 24.9511 25.701 25.3085 26.3373 25.9448C26.9736 26.5811 27.331 27.4441 27.331 28.3439C27.331 29.2438 26.9736 30.1068 26.3373 30.743C25.701 31.3793 24.838 31.7368 23.9382 31.7368C23.0383 31.7368 22.1753 31.3793 21.5391 30.743C20.9028 30.1068 20.5453 29.2438 20.5453 28.3439C20.5453 27.4441 20.9028 26.5811 21.5391 25.9448C22.1753 25.3085 23.0383 24.9511 23.9382 24.9511Z" fill="white"/>
</svg>
