<svg width="156" height="108" viewBox="0 0 156 108" fill="none" xmlns="http://www.w3.org/2000/svg">
<g filter="url(#filter0_d_98_9)">
<path d="M10.25 16.7481C10.25 7.83116 17.4997 0.581421 26.4167 0.581421H91.0833C100 0.581421 107.25 7.83116 107.25 16.7481V81.4148C107.25 90.3317 100 97.5814 91.0833 97.5814H26.4167C17.4997 97.5814 10.25 90.3317 10.25 81.4148V16.7481ZM151.481 9.62465C154.108 11.0392 155.75 13.7674 155.75 16.7481V81.4148C155.75 84.3955 154.108 87.1236 151.481 88.5382C148.854 89.9528 145.671 89.8012 143.17 88.134L118.92 71.9674L115.333 69.5676V65.2481V32.9148V28.5952L118.92 26.1955L143.17 10.0288C145.646 8.38689 148.829 8.21007 151.481 9.62465Z" fill="#0B1E44"/>
</g>
<defs>
<filter id="filter0_d_98_9" x="0.25" y="0.581421" width="155.5" height="107" filterUnits="userSpaceOnUse" color-interpolation-filters="sRGB">
<feFlood flood-opacity="0" result="BackgroundImageFix"/>
<feColorMatrix in="SourceAlpha" type="matrix" values="0 0 0 0 0 0 0 0 0 0 0 0 0 0 0 0 0 0 127 0" result="hardAlpha"/>
<feOffset dx="-10" dy="10"/>
<feComposite in2="hardAlpha" operator="out"/>
<feColorMatrix type="matrix" values="0 0 0 0 0.729412 0 0 0 0 0.639216 0 0 0 0 0.376471 0 0 0 1 0"/>
<feBlend mode="normal" in2="BackgroundImageFix" result="effect1_dropShadow_98_9"/>
<feBlend mode="normal" in="SourceGraphic" in2="effect1_dropShadow_98_9" result="shape"/>
</filter>
</defs>
</svg>
