<svg width="61" height="60" viewBox="0 0 61 60" fill="none" xmlns="http://www.w3.org/2000/svg">
<rect x="0.973877" y="0.192505" width="59.6576" height="59.6576" rx="29.8288" fill="#0B1E44"/>
<path d="M19.7239 19.3798C19.7239 17.4493 21.2934 15.8798 23.2239 15.8798H37.2239C39.1543 15.8798 40.7239 17.4493 40.7239 19.3798V40.3798H44.2239C45.1918 40.3798 45.9739 41.1618 45.9739 42.1298C45.9739 43.0977 45.1918 43.8798 44.2239 43.8798H38.0989H22.3489H16.2239C15.2559 43.8798 14.4739 43.0977 14.4739 42.1298C14.4739 41.1618 15.2559 40.3798 16.2239 40.3798H19.7239V19.3798ZM35.4739 31.6298C35.938 31.6298 36.3831 31.4454 36.7113 31.1172C37.0395 30.789 37.2239 30.3439 37.2239 29.8798C37.2239 29.4156 37.0395 28.9705 36.7113 28.6423C36.3831 28.3141 35.938 28.1298 35.4739 28.1298C35.0097 28.1298 34.5646 28.3141 34.2364 28.6423C33.9083 28.9705 33.7239 29.4156 33.7239 29.8798C33.7239 30.3439 33.9083 30.789 34.2364 31.1172C34.5646 31.4454 35.0097 31.6298 35.4739 31.6298Z" fill="white"/>
</svg>
