<svg width="61" height="61" viewBox="0 0 61 61" fill="none" xmlns="http://www.w3.org/2000/svg">
<rect x="0.671143" y="0.534912" width="59.6576" height="59.6576" rx="29.8288" fill="#0B1E44"/>
<path d="M44.3974 30.1942C44.3974 31.0265 43.7038 31.6785 42.9177 31.6785H41.438L41.4704 39.0863C41.4704 39.2112 41.4611 39.336 41.4472 39.4609V40.21C41.4472 41.2319 40.6195 42.0596 39.5976 42.0596H38.8577C38.8069 42.0596 38.756 42.0596 38.7052 42.055C38.6404 42.0596 38.5757 42.0596 38.5109 42.0596L37.0081 42.055H35.8983C34.8764 42.055 34.0487 41.2273 34.0487 40.2054V39.0956V36.1362C34.0487 35.3177 33.3874 34.6565 32.569 34.6565H29.6096C28.7911 34.6565 28.1298 35.3177 28.1298 36.1362V39.0956V40.2054C28.1298 41.2273 27.3021 42.055 26.2802 42.055H25.1704H23.6953C23.626 42.055 23.5566 42.0504 23.4872 42.0458C23.4318 42.0504 23.3763 42.055 23.3208 42.055H22.5809C21.559 42.055 20.7313 41.2273 20.7313 40.2054V35.0264C20.7313 34.9848 20.7313 34.9385 20.7359 34.8969V31.6739H19.2562C18.4239 31.6739 17.7765 31.0265 17.7765 30.1896C17.7765 29.7734 17.9152 29.4035 18.2389 29.0798L30.0905 18.7496C30.4141 18.4259 30.7841 18.3796 31.1078 18.3796C31.4314 18.3796 31.8014 18.4721 32.0788 18.7033L43.8888 29.0844C44.2587 29.4081 44.4437 29.778 44.3974 30.1942Z" fill="white"/>
</svg>
