<svg width="61" height="60" viewBox="0 0 61 60" fill="none" xmlns="http://www.w3.org/2000/svg">
<rect x="0.36853" y="0.192505" width="59.6576" height="59.6576" rx="29.8288" fill="#0B1E44"/>
<path d="M39.831 16.8798C39.0096 16.8798 33.2596 18.5226 33.2596 25.9155V31.6655C33.2596 33.4778 34.733 34.9512 36.5453 34.9512H38.1882V41.5226C38.1882 42.4313 38.9223 43.1655 39.831 43.1655C40.7397 43.1655 41.4739 42.4313 41.4739 41.5226V34.9512V29.2012V18.5226C41.4739 17.6139 40.7397 16.8798 39.831 16.8798ZM21.7596 17.7012C21.7596 17.2802 21.4464 16.9311 21.0254 16.8849C20.6045 16.8387 20.2297 17.1159 20.1373 17.5215L18.5817 24.519C18.5098 24.8425 18.4739 25.1711 18.4739 25.4996C18.4739 27.8561 20.2759 29.7916 22.581 30.0021V41.5226C22.581 42.4313 23.3152 43.1655 24.2239 43.1655C25.1326 43.1655 25.8667 42.4313 25.8667 41.5226V30.0021C28.1719 29.7916 29.9739 27.8561 29.9739 25.4996C29.9739 25.1711 29.9379 24.8425 29.8661 24.519L28.3105 17.5215C28.2181 17.1108 27.833 16.8387 27.4172 16.8849C27.0013 16.9311 26.6882 17.2802 26.6882 17.7012V24.5909C26.6882 24.8682 26.4623 25.094 26.185 25.094C25.9232 25.094 25.7076 24.8938 25.6819 24.632L25.0402 17.6293C25.0042 17.2032 24.65 16.8798 24.2239 16.8798C23.7978 16.8798 23.4435 17.2032 23.4076 17.6293L22.771 24.632C22.7453 24.8938 22.5297 25.094 22.2679 25.094C21.9906 25.094 21.7647 24.8682 21.7647 24.5909L21.7596 17.7012ZM24.2393 25.5048H24.2239H24.2085L24.2239 25.4688L24.2393 25.5048Z" fill="white"/>
</svg>
