<svg width="61" height="61" viewBox="0 0 61 61" fill="none" xmlns="http://www.w3.org/2000/svg">
<rect x="0.36853" y="0.850098" width="59.6576" height="59.6576" rx="29.8288" fill="#0B1E44"/>
<path d="M16.0453 25.0225C16.0453 21.0772 19.2429 17.8796 23.1882 17.8796H37.4739C41.4192 17.8796 44.6167 21.0772 44.6167 25.0225V26.8975C42.5799 27.3104 41.0453 29.1129 41.0453 31.2725V33.9511H19.6167V31.2725C19.6167 29.1129 18.0821 27.3104 16.0453 26.8975V25.0225ZM42.831 31.2725C42.831 30.1062 43.5788 29.1129 44.6167 28.7446C44.8958 28.6441 45.1971 28.5939 45.5096 28.5939C46.9884 28.5939 48.1882 29.7937 48.1882 31.2725V41.0939C48.1882 42.0816 47.3902 42.8796 46.4025 42.8796H44.6167C43.629 42.8796 42.831 42.0816 42.831 41.0939H17.831C17.831 42.0816 17.033 42.8796 16.0453 42.8796H14.2596C13.2719 42.8796 12.4739 42.0816 12.4739 41.0939V31.2725C12.4739 29.7937 13.6737 28.5939 15.1524 28.5939C15.4649 28.5939 15.7663 28.6497 16.0453 28.7446C17.0833 29.1129 17.831 30.1062 17.831 31.2725V33.9511V35.7368H19.6167H41.0453H42.831V33.9511V31.2725Z" fill="white"/>
</svg>
