<svg width="41" height="41" viewBox="0 0 41 41" fill="none" xmlns="http://www.w3.org/2000/svg">
<rect width="40.7593" height="40.7593" rx="8" fill="#0B1E44"/>
<path d="M19.8337 7C19.926 7 20.0183 7 20.1159 7.01323C21.3218 7.98061 22.52 8.93765 23.7235 9.8881C24.9675 10.8706 26.2171 11.8459 27.4631 12.8257C28.6476 13.7571 29.8284 14.6933 31.0151 15.6218C31.881 16.2994 32.7489 16.9748 33.6267 17.6369C33.8962 17.8401 34.0012 18.0614 34 18.4115C33.9853 22.6457 33.9905 26.8799 33.9905 31.1142C33.9905 31.2177 33.9905 31.3213 33.9905 31.4158C33.2677 31.4158 32.583 31.4158 31.8912 31.4158C31.8912 29.3576 31.8912 27.3213 31.8912 25.2851C31.8912 23.2756 31.8926 21.2662 31.8869 19.2567C31.8866 19.1558 31.856 19.0163 31.7866 18.9601C31.0741 18.3837 30.3509 17.8204 29.63 17.2543C29.2513 16.9568 28.8712 16.6611 28.4437 16.3272C28.4437 21.3956 28.4437 26.41 28.4437 31.4165C27.2391 31.4165 26.0698 31.4165 24.8937 31.4165C24.8937 31.2966 24.8937 31.1981 24.8937 31.0995C24.8937 25.3403 24.893 19.581 24.8966 13.8218C24.8967 13.6221 24.873 13.4764 24.6746 13.3587C24.4493 13.2251 24.2627 13.0274 24.0544 12.8636C23.5381 12.4576 23.0191 12.055 22.4663 11.6238C22.4663 18.251 22.4663 24.8312 22.4663 31.4224C20.8287 31.4224 19.211 31.4224 17.5732 31.4224C17.5732 24.8274 17.5732 18.2479 17.5732 11.6377C17.474 11.7006 17.398 11.7403 17.3314 11.7923C16.5878 12.3726 15.8483 12.9583 15.1014 13.5343C14.8721 13.7112 14.7625 13.8971 14.7632 14.2153C14.7772 19.8399 14.7733 25.4646 14.7733 31.0893C14.7733 31.2016 14.7733 31.314 14.7733 31.4242C13.5707 31.4242 12.408 31.4242 11.2262 31.4242C11.2262 26.4988 11.2262 21.5871 11.2262 16.6395C11.1383 16.6889 11.0743 16.7145 11.0226 16.7555C10.138 17.4557 9.26108 18.166 8.36584 18.8524C8.19919 18.9802 8.14962 19.0978 8.14984 19.2918C8.15426 23.23 8.15315 27.1682 8.15315 31.1064C8.15315 31.2107 8.15315 31.315 8.15315 31.4378C7.41405 31.4378 6.70702 31.4378 6 31.4378C6 31.4378 6 31.4109 6.01459 31.3804C6.03738 31.2613 6.05273 31.1727 6.05275 31.0842C6.05368 26.7014 6.0533 22.3187 6.06988 17.928C6.58594 17.5286 7.08784 17.1404 7.58386 16.7449C8.58188 15.949 9.573 15.1445 10.5738 14.3521C11.8234 13.3628 13.079 12.3812 14.3336 11.3983C15.1443 10.7632 15.9576 10.1314 16.7702 9.49868C17.7354 8.74716 18.7023 7.99783 19.6641 7.24201C19.7382 7.18373 19.778 7.0817 19.8337 7Z" fill="#BAA360"/>
</svg>
