<svg width="105" height="106" viewBox="0 0 105 106" fill="none" xmlns="http://www.w3.org/2000/svg">
<g filter="url(#filter0_d_99_19)">
<rect x="7.83325" y="0.581421" width="97" height="97" rx="9.62779" fill="#0B1E44"/>
<path d="M63.5834 24C64.0782 24 64.5532 24.2375 64.8501 24.6333C68.284 29.2151 72.5788 32.0453 78.0611 35.6672C78.5757 36.0037 79.1001 36.3599 79.6444 36.7162C82.5043 38.6162 84.1668 41.8323 84.1668 45.2365C84.1668 48.0667 83.0486 50.6298 81.2179 52.5001H45.949C44.1282 50.6199 43 48.0568 43 45.2365C43 41.8323 44.6527 38.6162 47.5225 36.7162C48.0568 36.3599 48.5912 36.0136 49.1058 35.6672C54.5881 32.0453 58.8829 29.2151 62.3168 24.6333C62.6136 24.2375 63.0886 24 63.5834 24ZM52.5001 74.6668V67.5418C52.5001 66.2256 51.4412 65.1668 50.1251 65.1668C48.8089 65.1668 47.7501 66.2256 47.7501 67.5418V74.6668H43C41.2485 74.6668 39.8334 73.2517 39.8334 71.5001V58.8334C39.8334 57.0819 41.2485 55.6667 43 55.6667H84.1668C85.9184 55.6667 87.3335 57.0819 87.3335 58.8334V71.5001C87.3335 73.2517 85.9184 74.6668 84.1668 74.6668H79.4168V67.5418C79.4168 66.2256 78.358 65.1668 77.0418 65.1668C75.7257 65.1668 74.6668 66.2256 74.6668 67.5418V74.6668H68.3334V68.9272C68.3334 67.047 67.5022 65.2657 66.0574 64.0584L63.5834 62.0001L61.1095 64.0584C59.6647 65.2657 58.8334 67.047 58.8334 68.9272V74.6668H52.5001ZM30.9667 24.5146C31.5307 24.0891 32.3026 24.0891 32.8667 24.5146L34.45 25.7021C37.8344 28.2453 39.8334 32.2334 39.8334 36.4688V36.6667H24V36.4688C24 32.2334 25.999 28.2453 29.3833 25.7021L30.9667 24.5146ZM24 39.8334H39.8334V53.3511C37.9433 54.4496 36.6667 56.4881 36.6667 58.8334V71.5001C36.6667 72.4501 36.8745 73.3408 37.2407 74.1522C36.5875 74.4887 35.8552 74.6668 35.0834 74.6668H28.75C26.1276 74.6668 24 72.5392 24 69.9168V41.4167V39.8334Z" fill="white"/>
</g>
<defs>
<filter id="filter0_d_99_19" x="0.164055" y="0.581421" width="104.669" height="104.669" filterUnits="userSpaceOnUse" color-interpolation-filters="sRGB">
<feFlood flood-opacity="0" result="BackgroundImageFix"/>
<feColorMatrix in="SourceAlpha" type="matrix" values="0 0 0 0 0 0 0 0 0 0 0 0 0 0 0 0 0 0 127 0" result="hardAlpha"/>
<feOffset dx="-7.6692" dy="7.6692"/>
<feComposite in2="hardAlpha" operator="out"/>
<feColorMatrix type="matrix" values="0 0 0 0 0.729412 0 0 0 0 0.639216 0 0 0 0 0.376471 0 0 0 1 0"/>
<feBlend mode="normal" in2="BackgroundImageFix" result="effect1_dropShadow_99_19"/>
<feBlend mode="normal" in="SourceGraphic" in2="effect1_dropShadow_99_19" result="shape"/>
</filter>
</defs>
</svg>
