<svg width="138" height="137" viewBox="0 0 138 137" fill="none" xmlns="http://www.w3.org/2000/svg">
<g filter="url(#filter0_d_38_51)">
<rect x="10.76" y="0.341309" width="126.48" height="126.48" rx="12.5538" fill="#0B1E44"/>
<path d="M77.6835 98.8909C84.9809 89.7584 101.624 67.6242 101.624 55.1915C101.624 40.113 89.3907 27.8794 74.3121 27.8794C59.2336 27.8794 47 40.113 47 55.1915C47 67.6242 63.6433 89.7584 70.9408 98.8909C72.6905 101.067 75.9338 101.067 77.6835 98.8909ZM74.3121 46.0875C76.7267 46.0875 79.0423 47.0467 80.7497 48.754C82.457 50.4613 83.4162 52.777 83.4162 55.1915C83.4162 57.6061 82.457 59.9217 80.7497 61.6291C79.0423 63.3364 76.7267 64.2956 74.3121 64.2956C71.8976 64.2956 69.5819 63.3364 67.8746 61.6291C66.1673 59.9217 65.2081 57.6061 65.2081 55.1915C65.2081 52.777 66.1673 50.4613 67.8746 48.754C69.5819 47.0467 71.8976 46.0875 74.3121 46.0875Z" fill="white"/>
</g>
<defs>
<filter id="filter0_d_38_51" x="0.76001" y="0.341309" width="136.48" height="136.48" filterUnits="userSpaceOnUse" color-interpolation-filters="sRGB">
<feFlood flood-opacity="0" result="BackgroundImageFix"/>
<feColorMatrix in="SourceAlpha" type="matrix" values="0 0 0 0 0 0 0 0 0 0 0 0 0 0 0 0 0 0 127 0" result="hardAlpha"/>
<feOffset dx="-10" dy="10"/>
<feComposite in2="hardAlpha" operator="out"/>
<feColorMatrix type="matrix" values="0 0 0 0 0.729412 0 0 0 0 0.639216 0 0 0 0 0.376471 0 0 0 1 0"/>
<feBlend mode="normal" in2="BackgroundImageFix" result="effect1_dropShadow_38_51"/>
<feBlend mode="normal" in="SourceGraphic" in2="effect1_dropShadow_38_51" result="shape"/>
</filter>
</defs>
</svg>
