<svg width="138" height="137" viewBox="0 0 138 137" fill="none" xmlns="http://www.w3.org/2000/svg">
<g filter="url(#filter0_d_38_58)">
<rect x="10.76" y="0.341309" width="126.48" height="126.48" rx="63.24" fill="#0B1E44"/>
<path d="M76.8207 33.7053C91.876 33.7053 104.087 45.9164 104.087 60.9717C104.087 62.5348 102.83 63.7923 101.266 63.7923C99.7033 63.7923 98.4458 62.5348 98.4458 60.9717C98.4458 49.0309 88.7615 39.3466 76.8207 39.3466C75.2576 39.3466 74 38.0891 74 36.5259C74 34.9628 75.2576 33.7053 76.8207 33.7053ZM77.7609 56.2706C78.7584 56.2706 79.7149 56.6668 80.4202 57.3721C81.1255 58.0774 81.5218 59.034 81.5218 60.0315C81.5218 61.0289 81.1255 61.9855 80.4202 62.6908C79.7149 63.3961 78.7584 63.7923 77.7609 63.7923C76.7635 63.7923 75.8069 63.3961 75.1016 62.6908C74.3963 61.9855 74 61.0289 74 60.0315C74 59.034 74.3963 58.0774 75.1016 57.3721C75.8069 56.6668 76.7635 56.2706 77.7609 56.2706ZM74 47.8086C74 46.2455 75.2576 44.9879 76.8207 44.9879C85.647 44.9879 92.8044 52.1454 92.8044 60.9717C92.8044 62.5348 91.5469 63.7923 89.9838 63.7923C88.4207 63.7923 87.1631 62.5348 87.1631 60.9717C87.1631 55.2598 82.5325 50.6293 76.8207 50.6293C75.2576 50.6293 74 49.3717 74 47.8086ZM57.7225 33.8698C60.0025 33.2469 62.3883 34.4105 63.2933 36.5965L67.9944 47.8791C68.7935 49.7948 68.2412 52.0161 66.631 53.3206L60.8369 58.0688C64.7506 66.3427 71.4497 73.0418 79.7236 76.9554L84.46 71.1613C85.7763 69.5512 87.9858 68.9988 89.9015 69.798L101.184 74.4991C103.37 75.4041 104.534 77.7899 103.911 80.0699L101.09 90.4123C100.538 92.4573 98.6808 93.8794 96.5653 93.8794C67.489 93.8794 43.913 70.3034 43.913 41.2271C43.913 39.1116 45.335 37.2546 47.38 36.6905L57.7225 33.8698Z" fill="white"/>
</g>
<defs>
<filter id="filter0_d_38_58" x="0.76001" y="0.341309" width="136.48" height="136.48" filterUnits="userSpaceOnUse" color-interpolation-filters="sRGB">
<feFlood flood-opacity="0" result="BackgroundImageFix"/>
<feColorMatrix in="SourceAlpha" type="matrix" values="0 0 0 0 0 0 0 0 0 0 0 0 0 0 0 0 0 0 127 0" result="hardAlpha"/>
<feOffset dx="-10" dy="10"/>
<feComposite in2="hardAlpha" operator="out"/>
<feColorMatrix type="matrix" values="0 0 0 0 0.729412 0 0 0 0 0.639216 0 0 0 0 0.376471 0 0 0 1 0"/>
<feBlend mode="normal" in2="BackgroundImageFix" result="effect1_dropShadow_38_58"/>
<feBlend mode="normal" in="SourceGraphic" in2="effect1_dropShadow_38_58" result="shape"/>
</filter>
</defs>
</svg>
