<svg width="106" height="106" viewBox="0 0 106 106" fill="none" xmlns="http://www.w3.org/2000/svg">
<g filter="url(#filter0_d_49_321)">
<rect x="8.16663" y="0.581421" width="97" height="97" rx="9.62779" fill="#0B1E44"/>
<path d="M56.8701 30.1608C56.1661 30.1608 55.4708 30.2825 54.8103 30.5172L30.432 39.3212C29.6064 39.6253 29.0588 40.4075 29.0588 41.2853C29.0588 42.1631 29.6064 42.9453 30.432 43.2495L35.4641 45.0659C34.0388 47.3082 33.2305 49.959 33.2305 52.7488V55.191C33.2305 57.6592 32.2919 60.2057 31.2924 62.2133C30.7275 63.3431 30.0844 64.4556 29.3369 65.4811C29.0588 65.8549 28.9806 66.3415 29.1371 66.7848C29.2935 67.228 29.6585 67.5583 30.1104 67.6713L35.6727 69.0618C36.0377 69.1574 36.4288 69.0879 36.7504 68.888C37.072 68.6881 37.2979 68.3579 37.3674 67.9842C38.1149 64.2644 37.7412 60.927 37.1849 58.537C36.9068 57.3029 36.5331 56.0427 36.0117 54.8868V52.7488C36.0117 50.1241 36.8981 47.6472 38.4364 45.6656C39.5576 44.3185 41.009 43.2321 42.7124 42.5629L56.3573 37.2006C57.07 36.9224 57.8783 37.2701 58.1564 37.9827C58.4345 38.6954 58.0868 39.5037 57.3742 39.7818L43.7293 45.1441C42.6516 45.57 41.7043 46.2218 40.9308 47.0214L54.8016 52.0274C55.4622 52.2621 56.1574 52.3838 56.8614 52.3838C57.5654 52.3838 58.2607 52.2621 58.9212 52.0274L83.3082 43.2495C84.1338 42.954 84.6814 42.1631 84.6814 41.2853C84.6814 40.4075 84.1338 39.6253 83.3082 39.3212L58.9299 30.5172C58.2694 30.2825 57.5741 30.1608 56.8701 30.1608ZM40.1833 62.8391C40.1833 65.907 47.6576 69.0966 56.8701 69.0966C66.0826 69.0966 73.5569 65.907 73.5569 62.8391L72.2271 50.2023L59.8685 54.6695C58.9038 55.0171 57.887 55.191 56.8701 55.191C55.8533 55.191 54.8277 55.0171 53.8717 54.6695L41.5131 50.2023L40.1833 62.8391Z" fill="white"/>
</g>
<defs>
<filter id="filter0_d_49_321" x="0.497429" y="0.581421" width="104.669" height="104.669" filterUnits="userSpaceOnUse" color-interpolation-filters="sRGB">
<feFlood flood-opacity="0" result="BackgroundImageFix"/>
<feColorMatrix in="SourceAlpha" type="matrix" values="0 0 0 0 0 0 0 0 0 0 0 0 0 0 0 0 0 0 127 0" result="hardAlpha"/>
<feOffset dx="-7.6692" dy="7.6692"/>
<feComposite in2="hardAlpha" operator="out"/>
<feColorMatrix type="matrix" values="0 0 0 0 0.729412 0 0 0 0 0.639216 0 0 0 0 0.376471 0 0 0 1 0"/>
<feBlend mode="normal" in2="BackgroundImageFix" result="effect1_dropShadow_49_321"/>
<feBlend mode="normal" in="SourceGraphic" in2="effect1_dropShadow_49_321" result="shape"/>
</filter>
</defs>
</svg>
