<svg width="105" height="106" viewBox="0 0 105 106" fill="none" xmlns="http://www.w3.org/2000/svg">
<g filter="url(#filter0_d_14_358)">
<rect x="8" y="0.641602" width="97" height="97" rx="48.5" fill="#0B1E44"/>
<path d="M35.0264 32.0258C35.0264 31.0256 35.831 30.221 36.8312 30.221H40.2527C41.9071 30.221 43.3735 31.1836 44.0578 32.6274H74.9647C76.9425 32.6274 78.3863 34.5074 77.8674 36.4174L74.7843 47.8703C74.1451 50.2316 72.0019 51.8784 69.5579 51.8784H47.8629L48.269 54.0216C48.4344 54.8714 49.1789 55.488 50.0437 55.488H71.7236C72.7238 55.488 73.5284 56.2926 73.5284 57.2928C73.5284 58.2929 72.7238 59.0976 71.7236 59.0976H50.0437C47.4418 59.0976 45.2084 57.2477 44.7271 54.6984L40.8468 34.3194C40.7942 34.0336 40.546 33.8306 40.2527 33.8306H36.8312C35.831 33.8306 35.0264 33.0259 35.0264 32.0258ZM44.6519 65.1135C44.6519 64.6395 44.7452 64.1701 44.9266 63.7322C45.108 63.2942 45.3739 62.8963 45.7091 62.5611C46.0443 62.226 46.4422 61.9601 46.8801 61.7787C47.3181 61.5973 47.7874 61.5039 48.2614 61.5039C48.7355 61.5039 49.2048 61.5973 49.6428 61.7787C50.0807 61.9601 50.4786 62.226 50.8138 62.5611C51.149 62.8963 51.4149 63.2942 51.5963 63.7322C51.7777 64.1701 51.871 64.6395 51.871 65.1135C51.871 65.5875 51.7777 66.0569 51.5963 66.4948C51.4149 66.9328 51.149 67.3307 50.8138 67.6659C50.4786 68.001 50.0807 68.2669 49.6428 68.4483C49.2048 68.6297 48.7355 68.7231 48.2614 68.7231C47.7874 68.7231 47.3181 68.6297 46.8801 68.4483C46.4422 68.2669 46.0443 68.001 45.7091 67.6659C45.3739 67.3307 45.108 66.9328 44.9266 66.4948C44.7452 66.0569 44.6519 65.5875 44.6519 65.1135ZM69.9189 61.5039C70.8762 61.5039 71.7943 61.8842 72.4712 62.5611C73.1481 63.2381 73.5284 64.1562 73.5284 65.1135C73.5284 66.0708 73.1481 66.9889 72.4712 67.6659C71.7943 68.3428 70.8762 68.7231 69.9189 68.7231C68.9615 68.7231 68.0434 68.3428 67.3665 67.6659C66.6896 66.9889 66.3093 66.0708 66.3093 65.1135C66.3093 64.1562 66.6896 63.2381 67.3665 62.5611C68.0434 61.8842 68.9615 61.5039 69.9189 61.5039Z" fill="white"/>
</g>
<defs>
<filter id="filter0_d_14_358" x="0.330803" y="0.641602" width="104.669" height="104.669" filterUnits="userSpaceOnUse" color-interpolation-filters="sRGB">
<feFlood flood-opacity="0" result="BackgroundImageFix"/>
<feColorMatrix in="SourceAlpha" type="matrix" values="0 0 0 0 0 0 0 0 0 0 0 0 0 0 0 0 0 0 127 0" result="hardAlpha"/>
<feOffset dx="-7.6692" dy="7.6692"/>
<feComposite in2="hardAlpha" operator="out"/>
<feColorMatrix type="matrix" values="0 0 0 0 0.729412 0 0 0 0 0.639216 0 0 0 0 0.376471 0 0 0 1 0"/>
<feBlend mode="normal" in2="BackgroundImageFix" result="effect1_dropShadow_14_358"/>
<feBlend mode="normal" in="SourceGraphic" in2="effect1_dropShadow_14_358" result="shape"/>
</filter>
</defs>
</svg>
