<svg width="61" height="61" viewBox="0 0 61 61" fill="none" xmlns="http://www.w3.org/2000/svg">
<rect x="0.36853" y="0.494019" width="59.6576" height="59.6576" rx="29.8288" fill="#0B1E44"/>
<path d="M31.5625 22.1875C31.5625 21.3232 32.2607 20.625 33.125 20.625C33.9893 20.625 34.6875 21.3232 34.6875 22.1875C34.6875 23.0518 35.3857 23.75 36.25 23.75C37.1143 23.75 37.8125 23.0518 37.8125 22.1875C37.8125 19.5996 35.7129 17.5 33.125 17.5C30.5371 17.5 28.4375 19.5996 28.4375 22.1875V31.5625H25.3125V30.3906C25.3125 28.8818 24.0869 27.6562 22.5781 27.6562H20.2344C19.585 27.6562 19.0625 28.1787 19.0625 28.8281C19.0625 29.4775 19.585 30 20.2344 30H22.5781C22.793 30 22.9688 30.1758 22.9688 30.3906V31.5625H19.0625C18.1982 31.5625 17.5 32.2607 17.5 33.125C17.5 33.9893 18.1982 34.6875 19.0625 34.6875H30H40.9375C41.8018 34.6875 42.5 33.9893 42.5 33.125C42.5 32.2607 41.8018 31.5625 40.9375 31.5625H37.0312V30.3906C37.0312 30.1758 37.207 30 37.4219 30H40.1562C40.8057 30 41.3281 29.4775 41.3281 28.8281C41.3281 28.1787 40.8057 27.6562 40.1562 27.6562H37.4219C35.9131 27.6562 34.6875 28.8818 34.6875 30.3906V31.5625H31.5625V22.1875ZM40.9375 37.8125V36.25H19.0625V37.8125C19.0625 40.4004 21.1621 42.5 23.75 42.5H36.25C38.8379 42.5 40.9375 40.4004 40.9375 37.8125Z" fill="white"/>
</svg>
