<svg width="138" height="137" viewBox="0 0 138 137" fill="none" xmlns="http://www.w3.org/2000/svg">
<g filter="url(#filter0_d_38_62)">
<rect x="10.76" y="0.341309" width="126.48" height="126.48" rx="12.5538" fill="#0B1E44"/>
<path d="M74.0001 26.791C53.5605 26.791 37 43.3515 37 63.7911C37 84.2307 53.5605 100.791 74.0001 100.791C94.4397 100.791 111 84.2307 111 63.7911C111 43.3515 94.4397 26.791 74.0001 26.791ZM91.1574 51.96C90.6054 57.8084 88.1884 72.0117 86.965 78.5613C86.4429 81.3363 85.4283 82.2613 84.4437 82.3508C82.2953 82.5448 80.6691 80.9335 78.5803 79.5609C75.3279 77.4274 73.4779 76.0996 70.3299 74.0109C66.6747 71.6089 69.0469 70.281 71.1206 68.1177C71.6727 67.5508 81.1316 58.9423 81.3106 58.1665C81.3404 58.0621 81.3553 57.704 81.1316 57.51C80.9078 57.3161 80.5945 57.3907 80.3707 57.4354C80.0424 57.5051 74.8405 60.9415 64.765 67.7447C63.2929 68.7593 61.9552 69.2516 60.7517 69.2218C59.4238 69.1919 56.8875 68.4758 54.9928 67.8641C52.6803 67.1181 50.8303 66.7153 50.9944 65.4322C51.074 64.7658 51.994 64.0845 53.7545 63.3883C64.5362 58.6936 71.7274 55.5954 75.3279 54.0935C85.6074 49.8266 87.7408 49.0806 89.1284 49.0507C89.4417 49.0507 90.113 49.1253 90.5606 49.4834C90.8527 49.7402 91.0389 50.0965 91.0828 50.483C91.1635 50.9709 91.1885 51.4665 91.1574 51.96Z" fill="white"/>
</g>
<defs>
<filter id="filter0_d_38_62" x="0.76001" y="0.341309" width="136.48" height="136.48" filterUnits="userSpaceOnUse" color-interpolation-filters="sRGB">
<feFlood flood-opacity="0" result="BackgroundImageFix"/>
<feColorMatrix in="SourceAlpha" type="matrix" values="0 0 0 0 0 0 0 0 0 0 0 0 0 0 0 0 0 0 127 0" result="hardAlpha"/>
<feOffset dx="-10" dy="10"/>
<feComposite in2="hardAlpha" operator="out"/>
<feColorMatrix type="matrix" values="0 0 0 0 0.729412 0 0 0 0 0.639216 0 0 0 0 0.376471 0 0 0 1 0"/>
<feBlend mode="normal" in2="BackgroundImageFix" result="effect1_dropShadow_38_62"/>
<feBlend mode="normal" in="SourceGraphic" in2="effect1_dropShadow_38_62" result="shape"/>
</filter>
</defs>
</svg>
